<?xml version="1.0" encoding="utf-8"?>
<!-- Generator: Adobe Illustrator 24.2.3, SVG Export Plug-In . SVG Version: 6.00 Build 0)  -->
<svg version="1.1" id="Слой_1" xmlns="http://www.w3.org/2000/svg" xmlns:xlink="http://www.w3.org/1999/xlink" x="0px" y="0px"
	 viewBox="0 0 54 54" style="enable-background:new 0 0 54 54;" xml:space="preserve">
<style type="text/css">
	.st0{fill-rule:evenodd;clip-rule:evenodd;fill:#13FFFF;}
</style>
<g id="Shape_1116_2_">
	<g>
		<path class="st0" d="M46.54,23.57c-0.51-3.44-1.89-6.6-3.92-9.24v-3.89h-3.94c-2.49-1.86-5.44-3.15-8.63-3.69L27,0l-2.99,6.64
			c-3.47,0.46-6.65,1.8-9.33,3.8h-3.74v3.64c-2.21,2.78-3.69,6.16-4.16,9.86L0,27l6.94,3.15c0.6,3.3,2.01,6.31,4,8.83v4.01h4.25
			c2.42,1.69,5.23,2.86,8.27,3.35L27,54l3.6-7.79c1.58-0.31,3.1-0.81,4.52-1.47l-2.45-3.16c-1.88,0.75-3.9,1.14-5.99,1.14
			c-4.33,0-8.4-1.69-11.46-4.74c-3.06-3.06-4.74-7.13-4.74-11.46c0-4.33,1.69-8.4,4.74-11.45c0.05-0.05,0.11-0.1,0.16-0.15h0.03
			v-0.03c3.04-2.94,7.03-4.57,11.27-4.57c4.33,0,8.4,1.68,11.45,4.74c3.06,3.06,4.74,7.13,4.74,11.45c0,3.6-1.17,7.02-3.32,9.83
			l-2.51-3.23c1.21-1.91,1.92-4.17,1.92-6.6c0-6.8-5.51-12.31-12.31-12.31c-6.8,0-12.31,5.51-12.31,12.31
			c0,6.8,5.51,12.31,12.31,12.31c1.21,0,2.37-0.17,3.47-0.5l0.06-0.02l-3.69-4.74l-0.02,0c-3.81-0.09-6.89-3.22-6.89-7.06
			c0-1.95,0.79-3.71,2.07-4.99c1.28-1.28,3.04-2.07,4.99-2.07c1.95,0,3.71,0.79,4.99,2.07c1.28,1.28,2.07,3.04,2.07,4.99
			c0,2.64-1.45,4.94-3.6,6.15l-0.04,0.02l3.25,4.18l0.01-0.01l3.89,5c0.01,0,0.03,0,0.04,0.01l0.88,1.13
			c0.01-0.01,0.02-0.01,0.03-0.02h4.45v-4.27c1.82-2.37,3.12-5.16,3.73-8.19L54,27L46.54,23.57z"/>
	</g>
</g>
</svg>
